<svg width="60" height="60" viewBox="0 0 60 60" fill="none" xmlns="http://www.w3.org/2000/svg">
<g clip-path="url(#clip0_4_12)">
<path d="M50.0005 0H10.0011C4.48296 0.015 0.016709 4.48313 0.00170898 9.99937V49.9987C0.00170898 55.4981 4.50171 59.9981 10.0011 59.9981H50.0005C55.4998 59.9981 59.9998 55.4981 59.9998 49.9987V9.99937C59.9998 4.5 55.4998 0 50.0005 0ZM44.533 42.1369C44.0323 43.3425 43.2411 44.4037 42.2248 45.2212C41.1748 46.0706 39.8455 46.7719 38.2067 47.2706C36.5717 47.7787 34.6273 48.0337 32.3736 48.0337H16.2936V13.0331H33.298C36.4423 13.0331 38.9623 13.74 40.8486 15.1837C42.748 16.6331 43.693 18.7931 43.693 21.7087C43.693 23.4712 43.2636 24.9844 42.3973 26.2331C41.5367 27.4762 40.2973 28.4475 38.698 29.1225V29.2369C40.8336 29.6869 42.4855 30.6994 43.573 32.2744C44.6605 33.8494 45.2173 35.8387 45.2173 38.2425C45.2173 39.5869 44.9567 40.8675 44.4673 42.0619L44.533 42.1369ZM37.5917 33.5119C36.5661 32.5744 35.1261 32.1169 33.2661 32.1169H22.4605V43.0369H33.2961C35.1467 43.0369 36.5961 42.5569 37.6217 41.5875C38.6473 40.6256 39.1723 39.2531 39.1723 37.4869C39.1555 35.7619 38.6473 34.4269 37.6217 33.5119H37.5917ZM36.0917 26.4544C37.0817 25.6144 37.5673 24.4125 37.5673 22.845C37.5673 21.0844 37.1305 19.8356 36.2417 19.1194C35.3623 18.4069 34.0911 18.0375 32.4223 18.0375H22.423V27.6956H32.4223C33.8792 27.6956 35.1223 27.2681 36.0917 26.4544Z" fill="#2D2D2D"/>
</g>
<defs>
<clipPath id="clip0_4_12">
<rect width="60" height="60" fill="white"/>
</clipPath>
</defs>
</svg>
