<svg width="60" height="60" viewBox="0 0 60 60" fill="none" xmlns="http://www.w3.org/2000/svg">
<g clip-path="url(#clip0_4_16)">
<path d="M30 29.9997C30 24.4759 34.4775 20.0003 39.9994 20.0003C45.5213 20.0003 49.9988 24.4778 49.9988 29.9997C49.9988 35.5234 45.5213 39.9991 39.9994 39.9991C34.4775 39.9991 30 35.5216 30 29.9997ZM9.99939 50.0003C9.99939 44.4766 14.4769 40.0009 19.9988 40.0009H29.9981V50.0003C29.9981 55.5241 25.5206 59.9997 19.9988 59.9997C14.4769 59.9997 9.99939 55.5222 9.99939 50.0003ZM30 -0.000322265V20.0003H39.9994C45.5231 20.0003 49.9988 15.5228 49.9988 10.0009C49.9988 4.47905 45.5213 0.00155273 39.9994 0.00155273L30 -0.000322265ZM9.99939 9.99905C9.99939 15.5228 14.4769 19.9984 19.9988 19.9984H29.9981V-0.00219727H19.9988C14.475 -0.00219727 9.99939 4.4753 9.99939 9.99718V9.99905ZM9.99939 29.9997C9.99939 35.5234 14.4769 40.0009 19.9988 40.0009H29.9981V19.9984H19.9988C14.475 19.9984 9.99939 24.4778 9.99939 29.9997Z" fill="#F87D02"/>
</g>
<defs>
<clipPath id="clip0_4_16">
<rect width="60" height="60" fill="white"/>
</clipPath>
</defs>
</svg>
