<svg width="50" height="51" viewBox="0 0 50 51" fill="none" xmlns="http://www.w3.org/2000/svg">
<path d="M25 0.717773C11.1937 0.717773 0 12.1498 0 26.2535C0 37.5355 7.16406 47.1083 17.0969 50.4838C18.3469 50.72 18.8062 49.93 18.8062 49.2549C18.8062 48.6468 18.7828 46.6342 18.7719 44.5004C11.8156 46.0453 10.3484 41.4872 10.3484 41.4872C9.21094 38.5362 7.57344 37.751 7.57344 37.751C5.30469 36.1662 7.74531 36.1981 7.74531 36.1981C10.2547 36.3785 11.5766 38.8299 11.5766 38.8299C13.8062 42.7337 17.425 41.6053 18.8516 40.9525C19.075 39.3023 19.7234 38.1755 20.4391 37.5371C14.8859 36.8924 9.04844 34.7011 9.04844 24.9177C9.04844 22.1295 10.025 19.852 11.625 18.0629C11.3656 17.4198 10.5094 14.8231 11.8672 11.3055C11.8672 11.3055 13.9672 10.6193 18.7437 13.9229C20.7375 13.3564 22.8766 13.0739 25.0016 13.0627C27.125 13.0723 29.2656 13.3564 31.2641 13.9229C36.0359 10.6193 38.1312 11.3055 38.1312 11.3055C39.4922 14.8231 38.6359 17.4198 38.3766 18.0629C39.9797 19.8504 40.95 22.1295 40.95 24.9177C40.95 34.725 35.1016 36.8844 29.5344 37.518C30.4313 38.3112 31.2297 39.8641 31.2297 42.2469C31.2297 45.6639 31.2 48.4138 31.2 49.2549C31.2 49.9347 31.65 50.7311 32.9172 50.4806C42.8453 47.1003 50 37.5323 50 26.2535C50 12.1498 38.8063 0.717773 25 0.717773Z" fill="#F87D02"/>
</svg>
