<svg width="50" height="50" viewBox="0 0 50 50" fill="none" xmlns="http://www.w3.org/2000/svg">
<g clip-path="url(#clip0_5_57)">
<path d="M25 4.50166C31.6797 4.50166 32.4703 4.53135 35.0969 4.64853C37.5391 4.75635 38.8563 5.16572 39.7359 5.50791C40.8984 5.95791 41.7375 6.50479 42.6063 7.37353C43.4859 8.25322 44.0219 9.08291 44.4813 10.2454C44.8234 11.1251 45.2328 12.4517 45.3406 14.8845C45.4578 17.522 45.4875 18.3126 45.4875 24.9829C45.4875 31.6532 45.4578 32.4532 45.3406 35.0813C45.2328 37.5235 44.8234 38.8407 44.4813 39.7204C44.0312 40.8829 43.4859 41.722 42.6156 42.5907C41.7359 43.4704 40.9062 44.0063 39.7453 44.4657C38.8656 44.8079 37.5375 45.2173 35.1063 45.3251C32.4688 45.4423 31.6781 45.472 25.0078 45.472C18.3375 45.472 17.5375 45.4423 14.9094 45.3251C12.4672 45.2173 11.15 44.8079 10.2703 44.4657C9.10781 44.0157 8.26875 43.4704 7.39844 42.6001C6.51875 41.7204 5.98281 40.8907 5.52344 39.7298C5.18125 38.8501 4.77187 37.522 4.66406 35.0907C4.54688 32.4532 4.51719 31.6626 4.51719 24.9923C4.51719 18.322 4.54688 17.522 4.66406 14.8938C4.77187 12.4517 5.18125 11.1345 5.52344 10.2548C5.97344 9.09229 6.52031 8.25322 7.38906 7.38291C8.26875 6.50322 9.09844 5.96729 10.2609 5.50791C11.1406 5.16572 12.4672 4.75635 14.9 4.64853C17.5266 4.53135 18.3187 4.50166 24.9984 4.50166H25ZM25 9.76563e-05C18.2125 9.76563e-05 17.3641 0.0297851 14.6969 0.146973C12.0406 0.26416 10.2141 0.693848 8.63281 1.30947C6.98281 1.95322 5.58594 2.80322 4.2 4.2001C2.80312 5.5876 1.95312 6.98291 1.30938 8.62354C0.69375 10.2157 0.264062 12.0313 0.146875 14.6876C0.0296875 17.3642 0 18.2126 0 25.0001C0 31.7876 0.0296875 32.636 0.146875 35.3032C0.264062 37.9595 0.69375 39.786 1.30938 41.3673C1.95469 43.0173 2.80312 44.4142 4.2 45.8001C5.58594 47.186 6.98281 48.047 8.62344 48.6813C10.2156 49.297 12.0312 49.7267 14.6875 49.8438C17.3531 49.961 18.2031 49.9907 24.9906 49.9907C31.7781 49.9907 32.6281 49.961 35.2938 49.8438C37.95 49.7267 39.7766 49.297 41.3578 48.6813C42.9984 48.047 44.3953 47.1876 45.7812 45.8001C47.1672 44.4126 48.0281 43.0173 48.6625 41.3767C49.2781 39.7845 49.7078 37.9688 49.825 35.3126C49.9422 32.647 49.9719 31.797 49.9719 25.0095C49.9719 18.222 49.9422 17.3735 49.825 14.7063C49.7078 12.0501 49.2781 10.2235 48.6625 8.64229C48.0469 6.98135 47.1969 5.58604 45.8016 4.19853C44.4156 2.8126 43.0187 1.95166 41.3781 1.31729C39.7859 0.70166 37.9703 0.271973 35.3141 0.154785C32.6391 0.0282227 31.7891 -0.00146484 25.0016 -0.00146484L25 9.76563e-05Z" fill="#F2AA63"/>
<path d="M25 12.1577C17.911 12.1577 12.1578 17.9093 12.1578 24.9999C12.1578 32.0905 17.9094 37.8421 25 37.8421C32.0906 37.8421 37.8422 32.0905 37.8422 24.9999C37.8422 17.9108 32.0906 12.1577 25 12.1577ZM25 33.3296C20.4 33.3296 16.6703 29.5999 16.6703 24.9999C16.6703 20.3999 20.4 16.6702 25 16.6702C29.6 16.6702 33.3297 20.3999 33.3297 24.9999C33.3297 29.5999 29.6 33.3296 25 33.3296Z" fill="#F2AA63"/>
<path d="M41.3468 11.6498C41.3468 13.3061 40.0047 14.6482 38.3484 14.6482C36.6922 14.6482 35.35 13.3061 35.35 11.6498C35.35 9.99355 36.6922 8.65137 38.3484 8.65137C40.0047 8.65137 41.3468 9.99355 41.3468 11.6498Z" fill="#F2AA63"/>
</g>
<defs>
<clipPath id="clip0_5_57">
<rect width="50" height="50" fill="white"/>
</clipPath>
</defs>
</svg>
