<svg width="50" height="50" viewBox="0 0 50 50" fill="none" xmlns="http://www.w3.org/2000/svg">
<g clip-path="url(#clip0_5_51)">
<path d="M45.3125 0H4.6875C2.10938 0 0 2.10938 0 4.6875V45.3125C0 47.8906 2.10938 50 4.6875 50H45.3125C47.8906 50 50 47.8906 50 45.3125V4.6875C50 2.10938 47.8906 0 45.3125 0ZM18.75 40.625H12.5V18.75H18.75V40.625ZM15.625 15.625C13.8969 15.625 12.5 14.2281 12.5 12.5C12.5 10.7719 13.8969 9.375 15.625 9.375C17.3531 9.375 18.75 10.7719 18.75 12.5C18.75 14.2281 17.3531 15.625 15.625 15.625ZM40.625 40.625H34.375V28.125C34.375 26.3969 32.9781 25 31.25 25C29.5219 25 28.125 26.3969 28.125 28.125V40.625H21.875V18.75H28.125V22.6266C29.4141 20.8594 31.3859 18.75 33.5938 18.75C37.4813 18.75 40.625 22.2469 40.625 26.5625V40.625Z" fill="#F2AA63"/>
</g>
<defs>
<clipPath id="clip0_5_51">
<rect width="50" height="50" fill="white"/>
</clipPath>
</defs>
</svg>
