<svg width="60" height="60" viewBox="0 0 60 60" fill="none" xmlns="http://www.w3.org/2000/svg">
<path d="M30 24.6526C27.0469 24.6526 24.6525 27.0469 24.6525 30.0001C24.6525 32.9532 27.0469 35.3476 30 35.3476C32.9531 35.3476 35.3475 32.9532 35.3475 30.0001C35.3475 27.0469 32.9531 24.6526 30 24.6526ZM15.0206 40.6369L13.8413 40.3369C5.04564 38.1151 0.00189209 34.3426 0.00189209 29.9888C0.00189209 25.6351 5.04752 21.8644 13.8413 19.6407L15.0206 19.3426L15.3525 20.5126C16.3744 24.0001 17.5331 26.9682 18.9131 29.8069L18.7594 29.4582L19.0125 29.9907L18.7594 30.5232C17.5294 33.0151 16.3688 35.9832 15.4575 39.0563L15.3525 39.4688L15.0206 40.6369ZM13.2919 22.3744C6.60752 24.2513 2.50502 27.1238 2.50502 29.9888C2.50502 32.8519 6.60752 35.7244 13.2919 37.6032C14.2519 34.5657 15.2531 32.0438 16.4081 29.6101L16.2469 29.9888C15.2513 27.9301 14.2481 25.4082 13.4138 22.8113L13.2919 22.3744ZM44.9794 40.6369L44.6475 39.4651C43.6275 35.9794 42.4688 33.0132 41.085 30.1763L41.2369 30.5213L40.9838 29.9888L41.2369 29.4563C42.4669 26.9644 43.6275 23.9982 44.5406 20.9251L44.6456 20.5107L44.9775 19.3407L46.1606 19.6388C54.9525 21.8607 59.9981 25.6332 59.9981 29.9888C59.9981 34.3444 54.9525 38.1132 46.1606 40.3369L44.9794 40.6369ZM43.7531 29.9907C44.9531 32.5876 45.945 35.1413 46.7081 37.6051C53.3963 35.7244 57.495 32.8519 57.495 29.9907C57.495 27.1257 53.3925 24.2551 46.7081 22.3763C45.75 25.4119 44.7488 27.9319 43.5919 30.3676L43.7531 29.9926V29.9907ZM13.275 22.3632L12.9431 21.1951C10.47 12.4801 11.22 6.23444 15 4.05569C18.7069 1.91631 24.66 4.44381 30.8981 10.8451L31.7475 11.7169L30.8981 12.5888C28.7494 14.8201 26.76 17.2426 24.9694 19.8132L24.8419 20.0063L24.5044 20.4882L23.9175 20.5388C20.4019 20.8219 17.175 21.3619 14.0475 22.1513L14.4563 22.0632L13.275 22.3632ZM18.015 5.78819C17.3456 5.78819 16.7531 5.93256 16.2525 6.22131C13.7681 7.65381 13.3275 12.6338 15.0394 19.3538C17.3081 18.8194 20.0663 18.3769 22.8769 18.1201L23.1225 18.1013C24.7988 15.7313 26.4825 13.6576 28.29 11.7001L28.2525 11.7413C24.3525 7.94444 20.6606 5.78819 18.015 5.78819ZM41.9869 56.6926C41.985 56.6926 41.985 56.6926 41.9869 56.6926C38.4244 56.6926 33.8494 54.0094 29.1019 49.1344L28.2525 48.2626L29.1019 47.3907C31.2506 45.1594 33.2381 42.7369 35.0269 40.1644L35.1544 39.9713L35.4919 39.4894L36.0769 39.4388C39.5925 39.1576 42.8213 38.6176 45.9525 37.8301L45.5438 37.9163L46.7231 37.6182L47.0588 38.7882C49.5263 47.4976 48.7781 53.7451 44.9981 55.9238C44.1563 56.4094 43.1456 56.6944 42.0694 56.6944C42.0394 56.6944 42.0113 56.6944 41.9813 56.6944H41.985L41.9869 56.6926ZM31.7475 48.2401C35.6475 52.0369 39.3394 54.1932 41.985 54.1932C42.6525 54.1932 43.2488 54.0488 43.7475 53.7601C46.2319 52.3276 46.6744 47.3457 44.9606 40.6257C42.6881 41.1619 39.9319 41.6044 37.1194 41.8594L36.8756 41.8782C35.2013 44.2501 33.5175 46.3238 31.71 48.2832L31.7475 48.2401ZM46.725 22.3632L45.5456 22.0651C42.8213 21.3601 39.5925 20.8201 36.285 20.5538L36.0769 20.5407L35.4919 20.4901L35.1544 20.0082C33.24 17.2444 31.2506 14.8219 29.085 12.5719L29.1019 12.5907L28.2525 11.7188L29.1019 10.8469C35.3363 4.44756 41.2875 1.92006 45 4.05756C48.78 6.23819 49.53 12.4819 47.0606 21.1951L46.725 22.3632ZM36.8756 18.0994C39.7313 18.3601 42.4425 18.7819 44.9606 19.3519C46.6763 12.6319 46.2338 7.65194 43.7475 6.21944C41.2781 4.79256 36.6356 6.97881 31.7475 11.7394C33.5156 13.6557 35.1994 15.7294 36.7463 17.9063L36.8756 18.0994ZM18.015 56.6926C17.9888 56.6926 17.9588 56.6926 17.9288 56.6926C16.8525 56.6926 15.8419 56.4076 14.9719 55.9069L15 55.9219C11.22 53.7451 10.47 47.4994 12.9431 38.7863L13.2731 37.6163L14.4525 37.9144C17.34 38.6419 20.5256 39.1538 23.9156 39.4369L24.5025 39.4876L24.8381 39.9694C26.7544 42.7351 28.7438 45.1576 30.9113 47.4076L30.8925 47.3888L31.7419 48.2607L30.8925 49.1326C26.1469 54.0076 21.5719 56.6926 18.015 56.6926ZM15.0394 40.6257C13.3238 47.3457 13.7663 52.3276 16.2525 53.7601C18.72 55.1682 23.3606 52.9969 28.2525 48.2401C26.4844 46.3238 24.8006 44.2482 23.2519 42.0713L23.1225 41.8782C20.0681 41.6044 17.3119 41.1619 14.6213 40.5451L15.0413 40.6257H15.0394ZM30 42.1951C27.9431 42.1951 25.8281 42.1051 23.7094 41.9307L23.1225 41.8801L22.785 41.3982C21.765 39.9582 20.6494 38.2276 19.6031 36.4501L19.41 36.0938C18.5625 34.6726 17.5894 32.8463 16.6913 30.9788L16.4944 30.5232L16.245 29.9907L16.4944 29.4582C17.5894 27.1351 18.5606 25.3107 19.6031 23.5313L19.41 23.8894C20.445 22.0988 21.5831 20.3138 22.785 18.5851L23.1225 18.1013L23.7094 18.0526C25.5938 17.8838 27.7856 17.7863 30 17.7863C32.2144 17.7863 34.4063 17.8838 36.5719 18.0732L36.2906 18.0526L36.8756 18.1032L37.2113 18.5851C39.4181 21.7088 41.5125 25.2732 43.3088 29.0101L43.5038 29.4601L43.7569 29.9926L43.5038 30.5251C41.52 34.7101 39.4238 38.2744 37.0556 41.6344L37.2113 41.4001L36.8756 41.8819L36.2906 41.9326C34.1738 42.1069 32.055 42.1969 29.9981 42.1969L30 42.1951ZM24.5081 39.4857C28.2075 39.7632 31.7925 39.7632 35.4956 39.4857C37.3781 36.7763 39.2044 33.6657 40.7963 30.4182L40.9856 29.9907C39.21 26.3194 37.3819 23.2088 35.3381 20.2594L35.4938 20.4957C33.8494 20.3626 31.935 20.2876 30.0019 20.2876C28.0688 20.2876 26.1544 20.3626 24.2588 20.5107L24.51 20.4957C22.62 23.2088 20.7919 26.3194 19.2038 29.5707L19.0181 29.9907C20.8013 33.6657 22.6294 36.7763 24.6694 39.7276L24.51 39.4838L24.5081 39.4857Z" fill="#2D2D2D"/>
</svg>
