<svg width="60" height="60" viewBox="0 0 60 60" fill="none" xmlns="http://www.w3.org/2000/svg">
<g clip-path="url(#clip0_4_8)">
<path d="M30.0019 12C22.0012 12 17.0025 15.9994 15.0019 24C18.0019 20.0006 21.5025 18.5006 25.5019 19.5C27.7837 20.07 29.415 21.7256 31.2225 23.5594C34.1644 26.5444 37.5675 30 45.0019 30C53.0025 30 58.0012 26.0006 60.0019 18C57.0019 21.9994 53.5012 23.4994 49.5019 22.5C47.22 21.93 45.5887 20.2744 43.7812 18.4406C40.8412 15.4556 37.4381 12 30.0019 12ZM15.0019 30C7.00124 30 2.00249 33.9994 0.00186157 42C3.00186 38.0006 6.50249 36.5006 10.5019 37.5C12.7837 38.07 14.415 39.7256 16.2225 41.5594C19.1644 44.5444 22.5675 48 30.0019 48C38.0025 48 43.0012 44.0006 45.0019 36C42.0019 39.9994 38.5012 41.4994 34.5019 40.5C32.22 39.93 30.5887 38.2744 28.7812 36.4406C25.8412 33.4556 22.4381 30 15.0019 30Z" fill="#F87D02"/>
</g>
<defs>
<clipPath id="clip0_4_8">
<rect width="60" height="60" fill="white"/>
</clipPath>
</defs>
</svg>
