<svg width="60" height="60" viewBox="0 0 60 60" fill="none" xmlns="http://www.w3.org/2000/svg">
<g clip-path="url(#clip0_4_10)">
<path d="M0 30V60H60V0H0V30ZM48.3525 27.6094C49.8769 27.99 51.0375 28.6669 52.1044 29.7712C52.6575 30.3619 53.4769 31.4363 53.5425 31.6969C53.5631 31.7719 50.9531 33.5213 49.3725 34.5037C49.3144 34.5413 49.0856 34.2938 48.8306 33.9131C48.0562 32.7881 47.2481 32.3025 46.0106 32.2181C44.19 32.0925 43.02 33.045 43.0312 34.635C43.0294 34.6631 43.0294 34.695 43.0294 34.7287C43.0294 35.1056 43.125 35.4619 43.2919 35.7731L43.2863 35.7619C43.6856 36.5887 44.4319 37.0875 46.7606 38.0944C51.0581 39.945 52.8956 41.1619 54.0375 42.8944C55.3125 44.8275 55.5994 47.9137 54.7331 50.2087C53.7825 52.7044 51.42 54.3994 48.0956 54.9581C47.0681 55.14 44.6306 55.1138 43.5263 54.9131C41.1169 54.4837 38.8312 53.2931 37.4212 51.7313C36.8681 51.1237 35.7919 49.5319 35.8594 49.4194C35.8875 49.38 36.135 49.2262 36.4087 49.0669C36.6787 48.915 37.6856 48.3319 38.6381 47.7788L40.3631 46.7794L40.725 47.3137C41.2294 48.0844 42.3319 49.1419 42.9994 49.4944C44.9137 50.505 47.5425 50.3625 48.8363 49.2C49.3181 48.7931 49.6219 48.1875 49.6219 47.5125C49.6219 47.4731 49.62 47.4338 49.6181 47.3962V47.4019C49.6181 46.7062 49.53 46.4025 49.1681 45.8775C48.7031 45.2119 47.7506 44.6531 45.045 43.4775C41.9494 42.1444 40.6181 41.3175 39.3975 40.0031C38.6625 39.1687 38.0963 38.1637 37.7644 37.0594L37.7494 37.0031C37.5225 36.1556 37.4644 34.0312 37.6444 33.1763C38.2819 30.1838 40.5394 28.1006 43.7962 27.4819C44.8537 27.2812 47.3119 27.3562 48.3487 27.615L48.3525 27.6094ZM34.2675 30.1144L34.2881 32.5725H26.475V54.7631H20.9494V32.5725H13.1438V30.1631C13.1438 28.8281 13.1719 27.7125 13.2094 27.6881C13.2394 27.6488 17.9925 27.6281 23.7525 27.6375L34.2394 27.6675L34.2675 30.1144Z" fill="#F87D02"/>
</g>
<defs>
<clipPath id="clip0_4_10">
<rect width="60" height="60" fill="white"/>
</clipPath>
</defs>
</svg>
